<svg xmlns="http://www.w3.org/2000/svg" xmlns:xlink="http://www.w3.org/1999/xlink" width="60" height="60" viewBox="0 0 60 60">
  <defs>
    <clipPath id="clip-path">
      <path id="Path_216" data-name="Path 216" d="M207-461a30,30,0,0,0,30-30,30,30,0,0,0-30-30,30,30,0,0,0-30,30A30,30,0,0,0,207-461Z" fill="none" clip-rule="evenodd"/>
    </clipPath>
    <clipPath id="clip-path-2">
      <path id="Path_215" data-name="Path 215" d="M0,0H414V-896H0Z" fill="none"/>
    </clipPath>
    <linearGradient id="linear-gradient" x1="0.445" y1="0.424" x2="0.545" y2="0.496" gradientUnits="objectBoundingBox">
      <stop offset="0" stop-color="#424a93"/>
      <stop offset="0.1" stop-color="#404890"/>
      <stop offset="0.2" stop-color="#3e458c"/>
      <stop offset="0.3" stop-color="#3c4389"/>
      <stop offset="0.4" stop-color="#3b4185"/>
      <stop offset="0.5" stop-color="#393f82"/>
      <stop offset="0.6" stop-color="#373c7e"/>
      <stop offset="0.7" stop-color="#353a7b"/>
      <stop offset="0.8" stop-color="#333878"/>
      <stop offset="0.9" stop-color="#313574"/>
      <stop offset="1" stop-color="#303371"/>
    </linearGradient>
    <clipPath id="clip-path-3">
      <path id="Path_219" data-name="Path 219" d="M218.286-489.286h-8.571v8.571A1.719,1.719,0,0,1,208-479a1.719,1.719,0,0,1-1.714-1.714v-8.571h-8.571A1.719,1.719,0,0,1,196-491a1.719,1.719,0,0,1,1.714-1.714h8.571v-8.571A1.719,1.719,0,0,1,208-503a1.719,1.719,0,0,1,1.714,1.714v8.571h8.571A1.719,1.719,0,0,1,220-491,1.719,1.719,0,0,1,218.286-489.286Z" fill="none"/>
    </clipPath>
  </defs>
  <g id="Group_229" data-name="Group 229" transform="translate(-177 521)" clip-path="url(#clip-path)">
    <g id="Group_228" data-name="Group 228" clip-path="url(#clip-path-2)">
      <g id="Group_227" data-name="Group 227" transform="translate(177 -521)">
        <path id="Path_214" data-name="Path 214" d="M-177-375H237V521H-177Z" fill="url(#linear-gradient)"/>
      </g>
    </g>
  </g>
  <g id="Group_231" data-name="Group 231" transform="translate(-177 521)" clip-path="url(#clip-path-3)">
    <g id="Group_230" data-name="Group 230" clip-path="url(#clip-path-2)">
      <path id="Path_217" data-name="Path 217" d="M191-508h34v34H191Z" fill="#fff"/>
    </g>
  </g>
</svg>
